<svg xmlns="http://www.w3.org/2000/svg" width="286" height="62" viewBox="0 0 286 62" role="img" aria-labelledby="title desc">
  <title id="title">リースバック相談窓口</title>
  <desc id="desc">家と循環矢印を組み合わせたリースバック相談窓口のロゴ</desc>
  <defs>
    <linearGradient id="logoAccent" x1="0" x2="1" y1="0" y2="1">
      <stop offset="0" stop-color="#ffb35c"/>
      <stop offset="1" stop-color="#ff7a1a"/>
    </linearGradient>
  </defs>
  <g fill="none" fill-rule="evenodd">
    <rect width="62" height="62" rx="18" fill="#edf5ff"/>
    <path d="M15 31.5 31 17l16 14.5v16.2a3.5 3.5 0 0 1-3.5 3.5h-25a3.5 3.5 0 0 1-3.5-3.5V31.5Z" fill="#fff" stroke="#165cc9" stroke-linejoin="round" stroke-width="3"/>
    <path d="M11.5 33 31 15.5 50.5 33" stroke="#165cc9" stroke-linecap="round" stroke-linejoin="round" stroke-width="3.4"/>
    <path d="M24 51V36h14v15" fill="#eaf2ff" stroke="#165cc9" stroke-linejoin="round" stroke-width="3"/>
    <path d="M42.5 18.5a17 17 0 0 1 2.2 22.4" stroke="url(#logoAccent)" stroke-linecap="round" stroke-width="4"/>
    <path d="m47.3 40.8-7.2 1.2 3.3-6.5" stroke="url(#logoAccent)" stroke-linecap="round" stroke-linejoin="round" stroke-width="4"/>
    <path d="M78 19h42" stroke="#ff7a1a" stroke-linecap="round" stroke-width="5"/>
    <text x="78" y="38" fill="#143b8a" font-family="'Noto Sans JP','Yu Gothic',sans-serif" font-size="22" font-weight="900" letter-spacing=".02em">リースバック</text>
    <text x="202" y="37" fill="#143b8a" font-family="'Noto Sans JP','Yu Gothic',sans-serif" font-size="17" font-weight="800">相談窓口</text>
    <text x="80" y="55" fill="#5d6470" font-family="'Noto Sans JP','Yu Gothic',sans-serif" font-size="11" font-weight="700" letter-spacing=".04em">住み慣れた家で、これからも。</text>
  </g>
</svg>
